<svg width="203" height="100" viewBox="0 0 203 100" fill="none" xmlns="http://www.w3.org/2000/svg">
<path d="M35.1719 89.2405L27.5 69.0217H27.375C27.4167 69.4488 27.4531 69.9696 27.4844 70.5842C27.5156 71.1988 27.5417 71.8707 27.5625 72.5999C27.5833 73.3186 27.5938 74.053 27.5938 74.803V89.2405H25.125V66.3967H29.0625L36.2969 85.3967H36.4062L43.75 66.3967H47.6562V89.2405H45.0312V74.6155C45.0312 73.9384 45.0417 73.2613 45.0625 72.5842C45.0833 71.8967 45.1094 71.2509 45.1406 70.6467C45.1719 70.0321 45.2031 69.5009 45.2344 69.053H45.1094L37.3438 89.2405H35.1719ZM66.625 89.2405H53.9062V66.3967H66.625V68.7405H56.5625V76.1311H66.0469V78.4436H56.5625V86.8967H66.625V89.2405ZM78.7031 89.2405H76.0312V68.7405H68.8438V66.3967H85.8594V68.7405H78.7031V89.2405ZM95.4844 66.3967C97.3594 66.3967 98.9062 66.6311 100.125 67.0999C101.354 67.5582 102.271 68.2613 102.875 69.2092C103.479 70.1571 103.781 71.3655 103.781 72.8342C103.781 74.0426 103.562 75.053 103.125 75.8655C102.688 76.6676 102.115 77.3186 101.406 77.8186C100.698 78.3186 99.9427 78.704 99.1406 78.9749L105.406 89.2405H102.312L96.7188 79.7092H91.9688V89.2405H89.3125V66.3967H95.4844ZM95.3281 68.6936H91.9688V77.4592H95.5938C97.4583 77.4592 98.8281 77.079 99.7031 76.3186C100.589 75.5582 101.031 74.4384 101.031 72.9592C101.031 71.4071 100.562 70.3082 99.625 69.6624C98.6979 69.0165 97.2656 68.6936 95.3281 68.6936ZM123.391 89.2405L120.578 81.9905H111.422L108.625 89.2405H105.938L114.875 66.303H117.266L126.141 89.2405H123.391ZM119.781 79.6311L117.109 72.428C117.047 72.2405 116.943 71.9332 116.797 71.5061C116.661 71.079 116.521 70.6363 116.375 70.178C116.229 69.7196 116.109 69.3499 116.016 69.0686C115.911 69.4957 115.797 69.9228 115.672 70.3499C115.557 70.7665 115.443 71.1571 115.328 71.5217C115.214 71.8759 115.115 72.178 115.031 72.428L112.312 79.6311H119.781ZM145.266 66.3967L137.062 89.2405H134.391L126.188 66.3967H128.969L134.312 81.4436C134.531 82.0478 134.724 82.6259 134.891 83.178C135.068 83.7301 135.224 84.2613 135.359 84.7717C135.495 85.2821 135.615 85.7769 135.719 86.2561C135.823 85.7769 135.943 85.2821 136.078 84.7717C136.214 84.2509 136.37 83.7144 136.547 83.1624C136.724 82.5999 136.922 82.0113 137.141 81.3967L142.453 66.3967H145.266ZM161.125 89.2405H148.406V66.3967H161.125V68.7405H151.062V76.1311H160.547V78.4436H151.062V86.8967H161.125V89.2405ZM166.188 89.2405V66.3967H168.844V86.8655H178.984V89.2405H166.188Z" fill="#FCFCFD"/>
<path d="M3 67.981L56.0938 31.353C83.4506 12.4802 119.627 12.4873 146.976 31.3708L200 67.981" stroke="#FF9D43" stroke-width="5" stroke-linecap="round"/>
</svg>
